<?xml version="1.0" encoding="utf-8"?>
<!-- Generator: Adobe Illustrator 24.0.2, SVG Export Plug-In . SVG Version: 6.00 Build 0)  -->
<svg version="1.1" id="Capa_1" xmlns="http://www.w3.org/2000/svg" xmlns:xlink="http://www.w3.org/1999/xlink" x="0px" y="0px"
	 viewBox="0 0 1200.1 100.2" style="enable-background:new 0 0 1200.1 100.2;" xml:space="preserve">
<style type="text/css">
	.st0{fill:#FFFFFF;}
</style>
<title>slant-bottom</title>
<path class="st0" d="M698.2,72.8c-0.1,0.3,0.3,0.7-0.5,0.8c0.8-1-4-0.1-4.8-0.6c-0.3-0.5,3.3,0.1,3-0.5c-1,0.1,0-0.4,0.6-0.4
	s0.3,0.6,0,0.6c1.4,0.2,1.5-0.6,3.5-0.3c0.1-0.4-0.9-0.4-1.3-0.6c3.3-0.4,2.3,0.8,4.3,0.9c1.3-0.3-0.8-0.5,0.6-0.6
	c1.6,0.4,3.2,0.4,4.8,0.1c-0.8,0-1.4,0-1.3-0.4c1.1,0,1.1-0.3,1.8-0.4c2.8-0.2,3.4,0.3,6.1,0.2c0.3-0.3-0.9-0.5,0-0.6
	c2.5,0,3.3,0.7,6.1,0.6c0.9-0.4,3.7-0.3,4.8-0.7c-0.8,0.1-1.6,0-2.4-0.3c1.1-0.4,3.9-0.3,5.9-0.4c0.9-0.2,0.9-0.6,2.4-0.7
	c0.1,0.4-0.6,0.4-0.5,0.8c1.8-0.1,3.6-0.3,5.3-0.7c2.4,0.2,4.9,0,7.2-0.6c4.4,0.1,9.5,0.3,12-0.3c-0.1,0.5,1.3,0.5,2.4,0.5
	c1.8-0.6,3.5-0.2,5.9-0.8c-2.3,0.8,3.2-0.1,2.4,0.7c-2,0.7-4.5-0.1-6.6,0c-0.9,0.8-3.8-0.1-4.8,0.7c2.3-0.3,1.8,0.4,3.7,0.3
	c-0.1-0.4,0.5-0.6,1.8-0.6c0,0.4-3,0.7-1.1,1c0.1-0.4,2.8-0.1,2.4,0.3c-0.8,0.1-1.4,0.5-1.3,1c0.1,0.3,0.3,0.5,0.6,0.6
	c2.7-0.2,4.8-0.2,6.6-0.4c0.3,0,0-0.4,0.6-0.4c0.5,0,2.8,0.3,2.4-0.3c-1.3-0.4-3.8,0.5-4.8-0.3c0.4-0.9,1.3-1.4,2.3-1.4
	c-1,0-1.4-0.3-1.3-0.7c0.6,0,0.8-0.2,1.1-0.2c2-0.2,2.3,0.2,4.2,0.1c0.4-0.8,3,0.2,3-0.7c-1.5-0.5-4,0.3-5.9,0.4
	c0-0.5,2.3-0.3,2.4-0.8c-2.4,0-4.8,0.2-7.2,0.6c-0.1-0.2,0.9-0.3,0-0.4c-8.3,1.1-20.1,0.1-30.6,1.4c0.6,0,0.8,0.3,0,0.4
	c-0.6-0.3-2.8-0.1-3-0.5c-1.5,0.8-4,0-6.1,0c-1.3,0-2.3,0.2-3.5,0.3c-1,0-2-0.1-3-0.1c-14.7,0.5-34.1,1-48,1.3
	c-0.9,0.7,2,0.1,1.8,0.5c-2.4,0.2-4.7-0.9-5.9,0.2c1,0,2,0.1,3,0.3c-1,0.4-2-0.1-4.2,0.1c1-0.7-0.4-0.5-0.6-1.1
	c3.2-0.3,6.3-0.4,9.6-0.5c2.5-0.1,5.7,0.1,6.6-0.6c-4.2,0.2-8.3,0.3-12.6,0.2c-0.9,0.7-3.5,0.3-4.2,0.3c-7.7,0.3-16.3,0.4-22.1,1
	c0.3,0.1,2.9,0.2,1.3,0.4c-2.1,0.1-2-0.6-3.7-0.7c-1.5,0.5,1.3,0.4,0.6,1.1c-1.3-0.4-3.8-0.3-2.4-1.1c-1.8,0.1-4.3-0.4-4.8,0.3
	c1.2-0.2,2.5-0.1,3.7,0.3c-0.8,0.5-5.3,1.1-4.8-0.1c-1.9-0.1-1.3,0.5-2.4,0.7c-2-0.6,1.4-0.7,2.4-1c-2.2-0.3-4.4-0.4-6.6-0.2
	c-0.4,0.7,3.2,0,2.4,0.9c-4-0.3-5.1,0.6-8.3,1c1-1.2-4.5,0-3.7-1.1c2,0.3,4-0.4,6.1,0c-0.8,0.1-1.6,0-1.8,0.2c0.6,0,0.8,0.2,1.3,0.2
	c1.4,0,0.6-0.3,1.1-0.4c0.9-0.2,2.4-0.2,1.1-0.6c-0.5-0.6-0.9,0.5-2.4,0.3c-3-0.2-7.2-0.3-9,0.4c0.9,0.1,3-0.3,3,0.1
	c-0.1,0.2,0.1,0.5-0.6,0.6c0.3-0.7-1.8-0.5-3.7-0.5c0-0.2,0.8-0.3,0.6-0.6c-3.3,0.2-6.3,0.2-8.3,0.2c-2.5,0-2.8,0.1-4.8,0.1
	c-1.5,0-3.5,0.3-4.2,0.3c-0.6-0.2-1.2-0.3-1.8-0.3c-2,0-4,0-5.9,0.2c-1.4,0-2.3-0.2-3.7-0.1c-0.8,0-1.5,0.4-2.4,0.5
	c-0.6,0.1-0.9-0.2-1.8-0.1c-0.8,0-1.1,0.5-1.8,0.4c-0.3,0-1.4-0.3-1.3-0.6c2.4-0.3,3.9,0.1,4.8-0.7c4.5,0.4,6.8-0.7,10.7-0.3
	c0.3-0.3,0.7-0.5,1.1-0.6c2.3,0.9,8.8-0.1,12.6-0.2c1.4,0,2.9,0.3,4.2,0.3c4.3,0,8.3-0.6,11.4-0.3c0.9-0.1,0-0.8,1.1-0.8
	c2.5-0.2,2.7,0.5,5.4,0.2c1-0.4-0.9-0.7,1.8-0.8c-0.5,0.6,0.5,0.7,1.3,0.9c2.7-0.2,2.7-0.1,4.8-0.3c2.9,0.8,5.7-0.3,9.6-0.3
	c0.1-0.2-0.1-0.5,0.6-0.6c-0.1,0.4,0.9,0.4,1.3,0.6c3.7-0.1,6.3-0.4,9.6-0.7c0.9,0.1,0.5,0.3,1.8,0.3c2.5,0,6.1-0.5,10.2-0.7
	c0.6,0.1,1.2,0.1,1.8,0.1c4.4-0.2,9.7-0.6,13.8-0.8c1.1-0.1,1.4,0.2,2.4,0.1c1.4-0.1,2.9-0.5,4.2-0.5c1.8,0.1,3.6,0,5.4-0.3
	c0.6,0,1.2,0.1,1.8,0.3c1.3-0.1,1.9-0.4,3-0.5c3-0.1,6.1-0.1,9-0.1c0.8,0,1.5-0.3,1.8-0.2c0.5,0,0.6,0.3,1.8,0.3
	c0.8-0.1,1.6-0.2,2.4-0.3c0.8,0.1,1.6,0.1,2.4,0.1c2.8-0.2,7.6-0.9,9.6-1c1.5,0.6,1.9-0.1,3-0.1c0.6,0.2,1.2,0.3,1.8,0.3
	c2.4,0,4.8-0.2,7.2-0.6c1,0,2,0,3,0.1c1.8-0.2,3.6-0.3,5.4-0.2c1.6-0.2,2.5-0.6,4.2-0.7c-0.4,0.1-1.4,1,0,1c1.5-0.2,0.5-1,2.9-0.9
	c-0.1,0.3-1,0.4-1.1,0.6c5.4,0,8.7-0.5,13.1-0.4c0.1-0.4-0.9-0.4-1.3-0.5c2.6,0.3,5.2,0.2,7.8-0.2c3.9,0.6,7.5-0.1,10.2-0.3
	c5.4-0.3,10.7-0.5,16.2-0.5c2.1,0,4-0.3,5.9-0.4c3.7-0.1,7.6-0.1,9.6-0.1c0.8,0,0.8-0.2,1.8-0.2c4.7,0,8.5-0.2,13.1-0.4
	c27.8-0.8,56.6-1.2,85.1-2.8c0-0.5-1-0.5-0.6-1.1c1.8,0,3.7-0.1,3.7,0.5c-2-0.1-2.9,0.2-2.4,0.8c2.3,0.1,1.6-0.5,3.5-0.5
	c0.9,0.6,4.2,0.2,6.6,0.2c0.1-0.2-0.1-0.5,0.6-0.6c2.9,0.3,5.4-1.4,4.2-0.1c0.8,0.1,1.8-0.4,2.4-0.3c0.1,0-0.1,0.4,0,0.4
	c4.2,0,8.5-0.1,12.6-0.4c2.7-0.1,6.3-0.3,9-0.4c0.9-0.1,1.6-0.4,2.4-0.5c3.4-0.3,6.8,0.1,9.6-0.5c-0.8-0.5-2.9,0.3-3-0.1
	c-0.6-0.6,1.3-0.4,2.4-0.5c-0.1-0.3,0.6-0.5,1.8-0.4c-0.1-0.5-1.1-0.6,0.5-0.8c2,0,4.5-0.2,4.8,0.4c-3.2-0.3-5.6,0.1-5.9,1.1
	c1.5,0.5,4-0.1,5.9-0.2c0.8,0.1,1.6,0.1,2.4,0.1c1.1-0.1,1.9-0.6,2.9-0.7c0.6,0.2,1.2,0.3,1.8,0.3c1.5-0.1,1.6-0.7,3.5-0.3
	c-0.8-0.1-1.6,0-2.4,0.3c1.8,0,3.6-0.1,5.4-0.3c3.5-0.2,8.6,0,9-0.8c-1.6-0.5-2.1,0.2-3.5,0.3c0-0.3-1-0.1-1.3-0.4
	c1.6-0.5,1-0.9,0-1.4c0.9-0.1,2.5,0.1,2.5-0.3l1.9-0.1c0.3,0.5,0.7,0.8,1.1,1.1c1.1,0,1.3-0.3,2.4-0.3c-0.3-0.6-1-0.9-1.6-0.9
	l4.5-0.2c0,0.3-0.2,0.5-0.5,0.6c1.2,0.1,2.4-0.2,3.5-0.7c-0.1,0.4,2.1,0,3,0.1c0.1-0.1,0-0.2,0-0.3l3.9-0.1
	c-0.2,0.1-0.4,0.3-0.3,0.6c0,0,0,0,0,0l0,0c0,0.1,0.1,0.1,0.1,0.2c0.1,0.1,0.2,0.1,0.4,0.1c-1.8,0-2,0.1-1.1,0.4
	c0.4,0.6,0.9-0.3,1.8-0.2c-0.1,0.4,0.5,0.6,1.8,0.5c-0.1-0.4,0.1-0.7,0.5-0.8c0,0,0,0,0,0c-0.8,0.1-1.6,0.1-2.4-0.1
	c0.9-0.4,1.9-0.7,2.9-0.8l1.6-0.1c0.3,0,0.5,0.1,0.8,0.1v-0.1l7.1-0.2c0,0.1,0.1,0.1,0.1,0.2c-0.5,0.1-1.1,0-1.1,0.2
	c2.4-0.6,2.4,0.3,5.4,0c0.1-0.3-0.3-0.5-0.9-0.6h0.9c1.8,0.2,3.9,0,5.4,0.2c0.6-0.6-1.4-0.3-2.4-0.3l0,0l7.2-0.2
	c0.3,0.6-0.5,0.9-1.1,1.3c2.8-0.2,7.2,0.1,9-0.4c-0.6,0-0.8-0.3,0-0.4c2.3-0.3,0.1,0.9,2.4,0.5c0.5-0.6,0.3-0.9,2.1-1.4l18.1-0.6
	c-0.4,0.1-0.6,0.2-0.4,0.5h1.3c0.1,0.1,0.2,0.1,0.4,0.1c0.1,0,0.1-0.1,0.3-0.1c-0.6-0.1-0.8-0.3-0.5-0.4l2.1-0.1
	c-0.3,0.2-0.6,0.3-0.4,0.7c1.8-0.2,1.6-0.4,1.8-0.7l6.3-0.2c-0.1,0.1-0.3,0.2-0.3,0.3c0.7,0.1,1.3-0.1,1.9-0.4h1.4
	c1.2,0.2,2.5,0.2,3.7-0.1h1.4c-0.5,0.1-0.9,0.1,0.1,0.2c0.6-0.5,2.8,0.3,3.5-0.3h1.3l5.4-0.2h0.6l100-3.5V0H0v100.1h0.4
	c0.3,0,2.7-0.3,3-0.3s0.5,0.4,1.3,0.4c0.4,0,0.6-0.4,1.8-0.4c1,0.1,2,0.1,3,0.1c3.5-0.8,7.1-1.1,10.7-0.9c0.1-0.2-0.1-0.6,0.6-0.6
	c2.8,0.1,8.5-0.4,13.1-0.6c0.8,0.1,1.6,0.1,2.4,0.1c0.8-0.2,1.5-0.3,2.4-0.5c0.8,0,1.6,0,2.4-0.1c3.7-0.5-2.5,0.1-1.3-0.6
	c2-0.2,2.7,0.1,3,0.5c1.9-0.1,2.1,0.3,4.2,0.1c0.8,0,0.5-0.4,1.1-0.4c0.9,0,0.5,0.5,1.8,0.3c1.6-0.8,4.3-0.1,7.2-0.6
	c0.8,0.4,0.8,1,2.4,1.1c0-0.3-0.1-0.7,1.1-0.6c-0.3,1.1-0.1,1.3-1.6,2.2c4.5-0.1,6.1,0,10.2-0.3c0.2-0.5,0.6-0.8,1.1-0.8
	c0.1,0.4,1.5,0.4,3,0.3c0.4-0.6-1.6-0.3-1.3-0.9c1,0.1,2.1,0.3,1.9,0.9c1.9,0.1,0.8-0.7,2.4-0.7c5.7-0.5,11.6-0.5,17.3-1.7
	c0.4,0.3,0.8,0.5,1.3,0.5c7.7-0.7,16.3-1.1,25.1-1.5c0.6-0.2,1.1-0.4,1.8-0.6c1.4,0.6,1.1,0,3-0.1c0.9,0,1,0.3,1.8,0.3
	c0.8-0.1,1.6-0.2,2.4-0.3c3.5-0.2,4.8-0.3,7.2-0.4c0.5-1.1,4.5-0.3,4.8-0.3c0.2-0.2,0.4-0.3,0.6-0.4c0.8-0.1,1.6-0.1,2.4,0.1
	c1.3,0.5,2.7-0.1,4.2-0.1c1.1,0,3.2,0,4.2-0.1c2.5-0.2,5.2-0.2,6.6-0.2c0.4-0.1,0.8-0.2,1.1-0.2c0.5,0,0.9,0.2,1.3,0.2
	c2.3-0.2,3.9-0.8,5.9-0.8c0.1,0.3,0,0.7,1.3,0.5c2.5,0,0.8-0.5,1.8-0.6c0.8,0.1,3.7,0.5,4.2,0.1c-0.9,0-2,0.1-1.8-0.3
	c2.3-0.3,1.8,0.4,3.7,0.3c0.8-1,5.2,0.2,6.6-0.6c-0.4,0-0.6-0.1,0-0.2c0.3,0.3,0.9,0.3,0.6,0.8c1.3-0.2,3.9,0.1,4.2-0.3
	c-4.2,0.3,1.5-1.3,2.4-0.7c0,0.3-1.6,0.2-1.8,0.4c3-0.4,6-0.6,9-0.4c0.1-0.2-0.1-0.5,0.6-0.6c0.9,0.6,2.3-0.3,4.2-0.1
	c0,0.2-0.8,0.3-0.6,0.6c3.3-0.8,2.1,0.9,4.8,0.3c0.8-0.7-1.9-0.1-1.3-0.7c0.8,0,0.5-0.4,1.1-0.4c0.6,0.1,2.5-0.2,3-0.1
	c0.1,0-0.1,0.4,0,0.4c1.6,0.1,3.5-0.2,5.9-0.2c0.1-0.2,0-0.4,0.6-0.4c3.3,0.1,6.8-0.3,10.7-0.1c0.1-0.2-0.1-0.5,0.6-0.6
	c2.1,0.1,1.8-0.6,3.5-0.7c0.4-0.4-0.8-1.1,0.5-1.2c0.9,0,2.3-0.1,2.4,0.1c-2.1,0.4-1.3,0.5-1.8,1.2c2.3-0.2,4.9-0.7,5.9-0.4
	c-0.5,0.4-1.9,0.6-0.5,1c2.2-0.3,4.4-0.4,6.6-0.2c1-0.5-0.6-0.9,1.8-1.2c-0.1,0.5,1.4,0.4,1.8,0.5c0.3,0.1-1.3,0.5,0.6,0.4
	c2.1,0.2,0.4-0.7,1.8-0.6c2.8-0.2,4.4,0.5,6.6,0.4c1.6,0,3-0.6,5.4-0.5c0.8-0.5-1.5-0.7,0-0.8c2.3,0.1,0.5,0.8,0.6,1.3
	c1.1,0,1.3-0.2,0.6-0.4c1-0.2,1-0.6,1.8-0.8c1.1,0,1.1-0.3,1.8-0.4c1.9,0.5,3.7,0.1,6.6,0.4c1.1-0.1,0.4-0.8,2.4-0.7
	c2.3-0.3,1.1,0.5,3,0.3c3.9-0.8,6.9,0.7,10.2,0.1c-0.8-0.3-2.4-0.5-1.3-0.9c0.9,0.7,4.9,0.6,7.2,0.2c0.1,0.4-0.6,0.5-0.5,0.8
	c1.1,0.3,5.9,0.3,4.8-0.1c-0.8,0.2-1.6,0.3-2.4,0.3c0.1-0.4-0.6-0.4-0.6-0.8c0.6,0,0.8-0.2,1.1-0.2c1.6,0,1.4,0.6,3,0.5
	c1.5-0.8-3.4-0.7-4.8-1c2.4-0.1,3.3,0.3,6.1,0c-0.8,0.7,3,0.9,3.7,0.5c-0.6,0-1.2,0-1.8,0.1c1.4-0.4-1-0.8,1.1-1
	c0,0.3,1.5,0.3,2.4,0.3c2.9,0.2,1.6-0.1,3.5-0.3c0.2,0.5,0.7,0.8,1.3,0.7c0.9-0.6,2-0.9,3-0.7c0,0.6,1.1,0.8,2.4,0.9
	c-0.5-0.8-2.1-1.1-3-1.7c0.6,0,0.8-0.2,1.1-0.2c1.5,0.4,1.5,1.3,5.4,0.8c-0.1,0.3-1,0.4-1.1,0.6c3.2-0.2,6.2,0.5,7.2-0.6
	c-1.8,0-3.7,0.6-4.2-0.1c1.1-0.1,3.7,0.2,3-0.5c0-0.3-1.6-0.1-1.8-0.3c0.3-0.3,0.8-0.4,1.8-0.4c2.3,0.1,0.1,0.7,1.3,0.9
	c2-0.2,4-0.2,6.1,0c0.5-0.4-1.8-0.6,0-0.8c1,0.6,1.5,0,3.5-0.1c0.6,0.5-2.8,0.8,0,0.8c2.8-0.1,0.8-0.9,1.8-1.2c-1,0-2-0.1-3-0.3
	c1.4-0.3,2.8-0.4,4.2-0.1c-2,0.8,1.6,0.9,1.9,1.5c-0.9,0-2.3,0.1-1.1,0.2c1.9,0,1.4-0.6,3.5-0.5c-0.3,1,3.4,0.5,5.4,0.6
	c2.5-0.8,5.1-1.1,7.7-0.8c0.4,0.6-2.8,0.2-2.9,0.7c1.6,0,3.2-0.1,4.8-0.3c-0.5-0.3-0.3-1-1.3-1.1c0,0.3-1.6,0.3-1.8,0.1
	c1.1-1.2,2.7,0.2,4.2,0.3c1.4,0.1,1.3-0.4,3-0.3c-0.1,0.2-0.9,0.4,0.6,0.4c0.4-0.6-0.6-0.7-0.6-1.1c0.6,0,1.2-0.1,1.8-0.2
	c1,0.1,1,0.6,1.9,0.7c1.1-0.5,2.3-0.8,3.5-0.9c1.4,0.3,0.6-0.1,1.8-0.2c2.4,0.3,4.8,0.3,7.2,0c-0.3,0-0.8-0.2,0-0.2
	c1.3,0.5,3.2,0.2,5.4,0c0,0.2-0.8,0.3-0.6,0.6c1.9,0,2.1-0.4,4.2-0.3c-0.1,0.4,0.8,0.4,0.6,0.8c1.9,0,1.4-0.6,3.5-0.5
	c1.6,0,0.8,0.9,3,0.7c0.8-0.5-0.4-0.6,0.5-0.8c1,0,3.4-0.6,4.2-0.1c0.8,1-2.9,1.4-1.8,2c2.3-0.2,4.5,0.1,6.7,0.8
	c1.6-0.1,3.2-0.1,4.8,0.1c0.1-0.2,0-0.4,0.6-0.4c2,0.3,3.9-0.3,5.9-0.4c1.4-0.1,2.9,0.2,4.2,0.1c1.3-0.1,2.4-0.4,3.5-0.5
	c1.9-0.1,3.9,0.1,6.1,0c3.9-0.2,8.1-0.7,11.4-0.7c0.6,0.1,1.2,0.1,1.8,0.1c1.9-0.1,3.2-0.7,4.8-0.1c2.3-0.7,5.7-0.3,9-0.4
	c3.2-0.1,6.9-0.2,10.7-0.3c2.8-0.1,5.8-0.5,9-0.6c4.2-0.1,8.8,0.4,10.2-0.5c4.3,0.1,11,0.4,14.4-0.4c3.5,0.6,7.8-0.1,13.3,0
	c1.8-0.8,5.8-0.8,9-0.4c1,0.1,1.5-0.4,3-0.5c0.6,0.1,1.2,0.2,1.8,0.1c1.5-0.1,4.4-0.4,3.7,0.3c-2.4,0.5-5.1-0.2-7.2,0.4
	c4.9,0.4,9.9,0,16.8-0.1c0.9,0,0.5-0.5,1.8-0.4c0.9,0.7,2.9,0.1,4.2,0.1c6.6-0.1,14.9-0.1,19.2-0.5c1-0.1,2.4,0,3-0.1
	c1-0.1,1.6-0.9,3.5-0.7c0.9-0.1,0-0.8,1.1-0.8c2-0.3,3.2,0,4.2-0.3c-0.8,0-1.4,0-1.3-0.4c1.6,0,3.2,0.2,4.8,0.4
	c2.4-0.5,4.8-0.6,7.2-0.2c0-0.2,0.1-0.5,1.1-0.4c0.9,0,0.5,0.5,1.8,0.3c-0.4-0.8,2.1-0.2,2.4-0.3c0.1,0,1.5-0.4,1.8-0.4
	c1.1-0.1,1.9,0.3,2.4-0.1c0.5-0.4-1.8-0.6,0-0.8c0.6,0,0.8-0.2,1.1-0.2c1.4,0.4-1.8,0.9,0.6,1.1c-1.4,0-2.3,0.1-2.4,0.5
	c1.1-0.2,3.2,0.1,4.2-0.1c0.5-0.1-0.3-0.3,0.6-0.4c0.8,0,1.6,0,2.4,0.1c1,0,2-0.3,3-0.3c2.7,0.2,5.4,0.2,8.1,0
	c-0.6,0-1.8-0.1-1.5-0.2c1.8-0.2,3.6-0.2,5.4,0c0.6,0,0.8-0.2,1.1-0.2c0.8,0,0.9,0.3,1.8,0.1c0.9-0.1,1.6-0.6,2.4-0.7
	c0.6,0.2,1.2,0.3,1.8,0.3c1,0,2-0.1,3-0.1c0.4,0,3-0.1,3-0.1c0.9,0,1.3,0.9,1.8,0.1c-0.4,0-0.6-0.1,0-0.2c1.6,0.4,3.8-0.5,5.4,0
	c-0.9,0-2,0-1.8,0.4c1.5-0.3,4.2-0.2,4.8-0.7c2.9,0.2,6.3,0.1,7.2-0.6c-0.1,0.4,0.5,0.6,1.8,0.5c3-0.5,8.5-0.3,12.6-0.5
	c0,0.4,0.6,0.4,1.8,0.3c2.1-0.8-2.7-0.7-1.3-1.1c2.3-0.1,2.1,0.7,3.7,0.9c3.3-0.2,6.1-0.5,8.5,0c-0.5-0.7,2-0.5,2.9-0.9
	c2.2,0.3,4.4,0.3,6.6,0c-0.3,0-0.8-0.2,0-0.2c1.5,0.1,3.8,0.9,5.4,0.2c-0.6,0-1.5-0.3-0.6-0.4c3.8,0.6,8.7,0.5,9-1.2
	C700.3,72.8,699.3,72.9,698.2,72.8z"/>
</svg>
