<?xml version="1.0" encoding="utf-8"?>
<!-- Generator: Adobe Illustrator 24.0.2, SVG Export Plug-In . SVG Version: 6.00 Build 0)  -->
<svg version="1.1" id="Capa_1" xmlns="http://www.w3.org/2000/svg" xmlns:xlink="http://www.w3.org/1999/xlink" x="0px" y="0px"
	 viewBox="0 0 949.5 143.4" style="enable-background:new 0 0 949.5 143.4;" xml:space="preserve">
<title>slant-top</title>
<path d="M394.3,82.6c0.1,2,4.1,2.1,7.1,1.4c0.7,0.1,0,0.4-0.5,0.4c1.3,0.8,3.1-0.2,4.3-0.3c0.6,0,0.2,0.3,0,0.2
	c1.7,0.4,3.5,0.4,5.2,0c0.7,0.4,2.7,0.2,2.3,1c1.9-0.6,4-0.1,6.7,0c1.2-0.2,1.1-1.1,2.9-1c1.1,0.5-2.7,0.4-1,1.3
	c1,0.1,1.5,0,1.4-0.4c3.2,0.3,7.5,0,10,0.6c1,0.1,1.5-0.1,1.4-0.6c0.7,0.8,3.3,1,5.7,0.7c0.5,0.6,2.6,0.5,3.8,0.8
	c0.2-0.5-0.7-0.5-1.4-0.5c1.2-0.6,3,0.4,4.3-0.1c0.5,0.1,0.3,0.2,0,0.2c0.5,0.9,0.8-0.1,1.4-0.2c0,0,2.1,0.1,2.4,0.1
	c0.8,0,1.6,0.1,2.4,0.1c0.5-0.1,1-0.2,1.4-0.4c0.5,0,1.2,0.6,1.9,0.8c0.7,0.1,0.8-0.2,1.4-0.2c0.4,0,0.5,0.3,0.9,0.3
	c1.9,0,3.1-0.4,4.3-0.1c0.1,0-0.7,0.2-1.2,0.2c2.1,0.4,4.4,0,6.4,0c0.7,0,1.5,0.3,2.4,0.3c0.6-0.1,1.3-0.2,1.9-0.1
	c0.7,0.1,0.1,0.3,0.5,0.5c0.8,0.3,2.4-0.1,3.3,0.1c-0.1-0.4-0.8-0.5-1.9-0.5c1.9-0.3-0.6-0.8,0.5-1.3c0.4,0.1,0.5,0.2,0.9,0.3
	c1.4,0.2-0.5,0.5,0,0.9c0.4,0.4,1,0,1.9,0.1c0.2,0,1.3,0.5,1.4,0.5c0.2,0,2.2-0.6,1.9,0.3c1,0.2,0.7-0.4,1.4-0.4
	c0.8-0.1,0.9,0.2,0.9,0.5c1.9-0.5,3.9-0.4,5.7,0.2c1.3-0.3,2.5-0.5,3.8-0.5c0.2,0.4-0.4,0.4-1,0.4c0.8,0.4,1.7,0,3.3,0.4
	c0.9,0.1,0.3,0.8,0.9,0.9c1.5-0.3,2,0.6,2.8,0.8c0.4,0.1,1.6,0,2.4,0.1c3.4,0.6,10,0.5,15.2,0.6c1,0,2.6,0.7,3.3-0.1
	c1.1-0.1,0.7,0.5,1.4,0.5c5.5,0.1,9.4,0.6,13.3,0.1c-1.7-0.7-3.8,0.1-5.7-0.5c-0.6-0.8,1.7-0.4,2.9-0.3c0.5,0,1,0,1.4-0.2
	c1.1,0.1,1.6,0.6,2.4,0.5c2.5-0.4,5.7-0.4,7.1,0.5c4.2-0.1,7.6,0.7,10.5,0c2.7,0.9,8,0.5,11.4,0.5c1,1,4.7,0.4,8.1,0.6
	c2.5,0.1,4.9,0.7,7.1,0.7c3,0.1,6,0.2,8.5,0.3c2.6,0.1,5.3-0.3,7.1,0.5c1.3-0.7,2.3,0.1,3.8,0.2c0.8,0,0.8-0.2,1.4-0.2
	c2.6,0.1,5.9,0.6,9,0.8c1.7,0.1,3.2-0.1,4.8,0c1,0.1,1.8,0.5,2.8,0.6c1.1,0.1,2.2-0.2,3.3-0.1c1.6,0.1,3.2,0.7,4.7,0.4
	c0.5,0,0.4,0.3,0.5,0.5c1.3-0.2,2.5-0.2,3.8-0.1c1.5-0.4,2.3-1.2,5.3-0.9c1-0.6-1.9-1.2-1.3-2.3c0.6-0.6,2.5,0.1,3.3,0.1
	c0.7,0.2-0.1,0.3,0.4,0.9c1.8,0.2,1.1-0.8,2.4-0.8c1.8-0.2,1.3,0.6,2.8,0.6c-0.1-0.4,0.6-0.4,0.5-0.9c1.7-0.1,1.8,0.4,3.3,0.4
	c0.1-0.4-0.4-0.4-0.5-0.7c1.7,0.2,3.2,0.5,4.3-0.1c0.6,0,0.2,0.3,0,0.2c1.9,0.4,3.8,0.4,5.7,0c0.9,0.2,0.3,0.7,1.4,0.3
	c1,0.1,2,0.4,2.8,1c0.7-0.2,0.6-0.7,1.5-0.8c0.5,0.2,0.9,0.3,1.4,0.3c0,0.5-0.8,0.6-0.5,1.3c1.2,0.1,0.6-0.1,0.5-0.4
	c1.3-0.2,1.2,0.4,2.4,0.3c1.2-0.1,2.5-1.7,3.3-0.3c-0.1,0.3-1.4,0.2-1.4-0.1c-0.8,0.2-0.5,0.9-1,1.3c1.2,0.3,2.5,0.4,3.8,0.4
	c-0.2-0.5-2.6-0.1-2.3-0.8c1.8-0.5,5.4,0.2,6.1,0.9c1.6-0.2,4.5,0.4,4.3-0.7c1.8-0.2,1.3,0.6,2.8,0.6c0.9-0.1-0.3-0.2-0.9-0.3
	c0.2-0.7,3.1-0.8,1.5-1.7c1.1-0.3,2.2-0.2,3.3,0.1c-0.8,0.3-1.6,0.4-2.4,0.4c0.8,0.4-0.8,1.3,1.4,1.4c2.2,0.1-0.5-0.3,0-0.9
	c1.6,0.1,2,0.8,2.8,0.1c1.4,0.2-0.5,0.5,0,0.9c0.9-0.4,3.1,0,4.8,0c0.9-0.3-0.8-1,1-1.1c0.8,0,1.2,0.2,1.4,0.5
	c-0.1,0.3-1.4,0-1.4,0.4c-0.5,0.7,1.5,0.4,2.4,0.5c-0.5,0.8-1.9,0.1-3.3,0.1c0.8,1.2,3.2,0.4,5.7,0.7c-0.2-0.3-0.8-0.4-0.9-0.7
	c3.1,0.5,3.1-0.5,4.3-0.9c0.4,0.1,0.5,0.2,0.9,0.3c-0.7,0.7-2.1,1-2.4,1.9c1.1-0.1,1.9-0.4,1.9-1c0.9-0.1,1.7,0.1,2.4,0.8
	c0.5,0,0.9-0.4,1-0.9c1.5,0.2,0.5,0.5,2.8,0.3c0.7-0.1,1.9,0,1.9-0.4c1.7,0.2-0.2,0.7,0.9,1.2c-0.5,0-0.9,0-1.4-0.1
	c0.5,0.4,3.4,0.3,2.9-0.6c2.1,0.3,2.9-0.2,4.8,0c-1.2,0.4-5.1,0.3-3.8,1.2c1.3,0.1,1.1-0.6,2.4-0.6c0.4,0.1,0.5,0.2,0.9,0.3
	c0,0.4-0.6,0.4-0.5,0.9c-0.6,0-1.3-0.1-1.9-0.3c-0.9,0.5,2.9,0.6,3.8,0.2c0.1-0.4-0.6-0.5-0.4-0.9c1.8,0.5,5,0.6,5.7-0.2
	c0.9,0.4-0.4,0.7-1,1.1c2.6,0.7,5-1.1,8.1-0.1c1.5,0.2,0.6-0.7,2.4-0.4c1.5-0.1,1,0.6,1.9,0.8c2.3-0.4,3.7,0.1,5.2-0.5
	c0.5,0.2,0.5,0.5,1.4,0.5c0.6,0.2,0.6,0.8,1.4,1c-0.5,0.3-0.4,0.4,0.5,0.5c0.1-0.7-1.3-1.4,0.5-1.5c1.2,0.1-0.7,0.4,0,0.9
	c1.8-0.1,2.9,0.6,4.3,0.6c1.8,0.1,3-0.6,5.2-0.5c1.1,0-0.3,1,1.4,0.7c1.5,0.2,0.2-0.3,0.5-0.4c0.3-0.2,1.5,0,1.4-0.6
	c1.9,0.3,0.6,0.8,1.4,1.4c1.7-0.2,3.5-0.2,5.2,0.2c1-0.4,0-0.7-0.4-1.1c0.8-0.4,2.9,0.1,4.7,0.4c-0.4-0.8,0.4-1-1.4-1.4
	c0.2-0.3,1.2-0.1,1.9-0.1c1,0.1,0.2,1,0.4,1.4c1.4,0,1.1,0.9,2.8,0.8c0.6,0.1,0.4,0.4,0.5,0.7c3.1-0.2,5.9,0.2,8.5,0.1
	c0.5,0,0.4,0.3,0.5,0.5c2,0,3.4,0.3,4.7,0.2c0.1,0-0.1-0.4,0-0.4c0.4-0.2,1.9,0.2,2.4,0.1c0.5,0.1,0.3,0.5,0.9,0.5
	c0.6,0.7-1.5,0.1-1,0.9c2.1,0.7,1.2-1.3,3.8-0.3c0.1-0.4-0.4-0.4-0.5-0.7c1.5-0.2,2.6,0.8,3.3,0.1c0.6,0.1,0.4,0.4,0.5,0.7
	c2.4-0.2,4.8,0,7.1,0.5c-0.1-0.3-1.4-0.1-1.4-0.5c0.6-0.7,5.2,1.1,1.9,0.8c0.2,0.5,2.3,0.2,3.3,0.4c-0.2-0.5,0.3-0.6,0.5-0.9
	c0.5,0.1,0.3,0.2,0,0.2c1.1,0.8,4.6-0.5,5.2,0.7c1.5,0.2,1.1-0.6,2.9-0.3c0.2,0.5-0.7,0.4-1.4,0.4c0.4,0.5,2.7,0.1,3.3-0.1
	c0.8,0.1-0.6,0.8,1.4,0.7c1,0.1,0.9-0.3,1-0.6c1.6-0.1,2.9,0.7,4.7,0.9c0.3,0,0.6-0.2,1-0.2c0.3,0,0.7,0.1,0.9,0.3
	c1.2,0,3.2,0,5.2,0.2c0.9,0.1,2.4,0.1,3.3,0.1c1.2,0,2.3,0.7,3.3,0.1c0.6-0.2,1.3-0.3,1.9-0.1c0.2,0.1,0.3,0.3,0.5,0.5
	c0.2,0,3.4-0.9,3.8,0.4c1.9,0.1,2.9,0.3,5.7,0.5c0.6,0.1,1.3,0.2,1.9,0.3c0.6,0,0.8-0.4,1.4-0.4c1.5,0,1.3,0.8,2.4,0.1
	c0.5,0.2,0.9,0.5,1.4,0.7c7,0.4,13.8,0.9,19.9,1.7c0.4-0.1,0.7-0.3,1-0.6c4.5,1.3,9.2,1.4,13.7,1.9c1.2,0,0.3,0.9,1.9,0.8
	c-0.2-0.7,0.6-0.9,1.5-1.1c0.3,0.7-1.3,0.4-1,1.1c1.2,0.1,2.3,0.1,2.4-0.3c0.5,0.1,0.9,0.4,0.9,0.9c3.3,0.3,4.4,0.2,8.1,0.3
	c-0.9-0.5-1.4-1.5-1.3-2.5c1-0.1,0.9,0.4,0.9,0.7c1.3-0.1,1.4-0.8,1.9-1.3c2.3,0.5,4.4-0.2,5.7,0.7c1,0.2,0.7-0.4,1.4-0.4
	c0.5,0.1,0.3,0.5,0.9,0.5c1.6,0.2,1.8-0.3,3.3-0.1c0.3-0.4,0.8-0.8,2.4-0.6c1.1,0.8-3.9,0.1-1,0.6c0.6,0.1,1.3,0.1,1.9,0.1
	c0.6,0.1,1.3,0.3,1.9,0.5c0.8,0.1,1-0.2,1.9-0.1c3.7,0.2,8.3,0.8,10.4,0.7c0.6,0.1,0.4,0.4,0.5,0.7c2.9-0.3,5.8,0.1,8.5,1
	c0.8,0,1.6,0,2.4-0.1c0.9,0,1.1,0.5,1.4,0.5c0.6,0,0.7-0.4,1-0.4c0.2,0,2.2,0.3,2.4,0.3c0.1,0,0.2,0,0.3,0V-15.2L0-24.1v76.5
	l79.2,3.9c0.2,0,0.4,0,0.5,0l4.3,0.2h0l1,0c0.6,0.7,2.3-0.2,2.8,0.3c0.8-0.1,0.5-0.1,0.1-0.2l1.1,0.1c0.9,0.4,1.9,0.4,2.9,0.1
	l1.1,0.1c0.4,0.3,1,0.5,1.5,0.4c-0.1-0.1-0.1-0.3-0.2-0.4l5,0.2c0.1,0.4-0.1,0.6,1.4,0.8c0.2-0.4-0.1-0.6-0.3-0.8l1.7,0.1
	c0.1,0.2,0,0.4-0.4,0.5c0,0.1,0.1,0.1,0.2,0.1c0.1,0,0.3,0,0.3-0.1c0.3,0,0.6,0,0.9,0c0.2-0.3-0.1-0.4-0.3-0.5l14.3,0.7
	c1.5,0.5,1.3,0.9,1.7,1.6c1.8,0.4,0.1-1,1.9-0.6c0.6,0.1,0.5,0.5,0,0.4c1.4,0.6,4.9,0.3,7.1,0.5c-0.6-0.4-1.1-0.8-0.9-1.5l5.7,0.3
	c0,0,0,0,0,0c-0.8,0-2.4-0.3-1.9,0.4c1.2-0.3,2.9-0.1,4.3-0.3c0,0,0,0,0.1,0l0.6,0c-0.5,0.1-0.8,0.3-0.7,0.7c2.4,0.3,2.3-0.7,4.3,0
	c0-0.2-0.6-0.2-0.9-0.3c0-0.1,0-0.1,0.1-0.2l5.6,0.3c0,0.1,0,0.1,0,0.2c0.2-0.1,0.4-0.1,0.6-0.1l1.3,0.1c0.8,0.2,1.6,0.5,2.3,0.9
	c-0.2,0.3-1.2,0.1-1.9,0.1c0.3,0.2,0.5,0.5,0.4,0.9c1,0.1,1.5-0.1,1.4-0.6c0.7-0.1,1.1,0.9,1.4,0.3c0.7-0.4,0.5-0.5-0.9-0.5
	c0.1,0,0.2-0.1,0.3-0.2c0.2-0.2,0.3-0.4,0.1-0.7c0-0.1-0.1-0.1-0.2-0.2l3.1,0.2c-0.1,0.1-0.1,0.2,0,0.3c0.7-0.1,2.4,0.4,2.4-0.1
	c0.8,0.6,1.8,0.8,2.8,0.8c-0.2-0.2-0.4-0.4-0.4-0.7l3.6,0.2c-0.6,0.1-1.1,0.5-1.3,1.1c0.9,0,1,0.3,1.9,0.3c0.4-0.4,0.7-0.8,0.9-1.3
	l1.5,0.1c0,0.4,1.3,0.2,2,0.3c-0.9,0.5-1.4,1-0.1,1.6c-0.1,0.2-0.9,0.1-1,0.4c-1.2-0.1-1.6-0.9-2.8-0.3c0.3,1,4.3,0.7,7.1,1
	c1.4,0.2,2.8,0.4,4.3,0.4c0.1-0.2-1.4-0.4-1.9-0.3c1.5-0.4,1.6,0.3,2.8,0.3c0.5,0,1-0.1,1.4-0.4c0.8,0.1,1.4,0.6,2.4,0.8
	c0.8,0.1,1.1-0.2,1.9-0.1c1.6,0.1,3.6,0.7,4.7,0.2c-0.3-1.2-2.2-1.7-4.7-1.3c0.2-0.7,2.2-0.5,3.8-0.5c1.4,0.2,0.5,0.4,0.4,0.9
	c1,0,1.5,0.1,1.4,0.5c0.8,0.1,2.4-0.1,1.9,0.5c-0.1,0.4-1.8-0.4-2.4,0.1c2.2,0.7,4.9,0.2,7.6,0.5c0.6,0.1,1.2,0.5,1.9,0.5
	c2.1,0.2,5,0.4,7.1,0.5c3.3,0.3,6.6,0.4,10,0.4c0.1,0-0.1-0.4,0-0.4c0.5-0.2,1.3,0.5,1.9,0.3c-0.9-1.5,1,0.5,3.3,0.1
	c0.6,0.1,0.4,0.4,0.5,0.7c1.9,0,4.6,0.4,5.2-0.2c1.5,0,1.1,0.7,2.8,0.6c0.4-0.8-0.2-1.1-1.9-1c0-0.7,1.5-0.6,2.9-0.6
	c0.3,0.7-0.5,0.8-0.5,1.3c22.6,1.9,45.4,2.3,67.4,3.2c3.7,0.2,6.7,0.4,10.4,0.4c0.8,0,0.8,0.3,1.4,0.3c1.6,0,4.7,0,7.6,0.1
	c1.6,0.1,3,0.5,4.7,0.4c4.3,0,8.5,0.1,12.8,0.5c2.2,0.2,5,1,8.1,0.3c2,0.5,4.1,0.6,6.2,0.3c-0.3,0.2-1.1,0.2-1,0.6
	c3.5-0.2,6.2,0.4,10.4,0.4c-0.2-0.3-0.8-0.4-0.9-0.7c1.9-0.2,1.2,0.8,2.3,1c1.1,0,0.3-1,0-1.1c1.3,0.2,2,0.6,3.3,0.8
	c1.5-0.3,2.5,0.1,4.3,0.2c0.9,0,1.6-0.2,2.4-0.1c1.9,0.4,3.8,0.7,5.7,0.7c0.5-0.1,1-0.2,1.4-0.4c0.8,0,1.2,0.8,2.4,0.1
	c1.6,0.2,5.4,1,7.6,1.2c0.6,0,1.3,0,1.9-0.1c0.9,0,1,0.3,1.9,0.3c1,0,1-0.4,1.4-0.4c0.2,0,0.9,0.3,1.4,0.3c2.4-0.1,4.8-0.1,7.1,0.1
	c0.8,0.1,1.4,0.4,2.4,0.5c0.5-0.2,0.9-0.3,1.4-0.4c1,0.5,2.9,0.4,4.3,0.4c1,0,2.2,0.5,3.3,0.6c0.8,0.1,1-0.2,1.9-0.1
	c3.2,0.2,7.4,0.6,10.9,0.9c0.8,0.1,0.8-0.2,1.4-0.2c3.2,0.2,6,0.8,8.1,0.8c1,0,0.7-0.3,1.4-0.4c2.6,0.2,4.7,0.7,7.6,0.8
	c0.3-0.2,1.1-0.2,1-0.6c0.6,0.1,0.4,0.4,0.5,0.7c3.1,0,5.2,1.2,7.6,0.3c1.7,0.2,1.7,0.1,3.8,0.4c0.5-0.2,1.4-0.3,1-1.1
	c2.1,0.1,0.6,0.5,1.4,1c2.2,0.3,2.3-0.5,4.3-0.3c0.9,0.1,0.3,0.8,0.9,0.9c2.4-0.3,5.7,0.4,9,0.4c1,0,2.2-0.3,3.3-0.3
	c2.9,0.1,8.1,1.2,10,0.2c0.4,0.2,0.7,0.4,0.9,0.7c3.2-0.4,5,0.8,8.5,0.3c0.7,1,1.8,0.5,3.8,0.8c0.2,0.2-0.8,0.6-1,0.6
	c-0.5,0-0.8-0.5-1.4-0.5c-0.7-0.1-0.9,0.3-1.4,0.2c-0.7-0.1-1.3-0.5-1.9-0.5c-1-0.1-1.7,0.1-2.9,0.1c-1.6-0.2-3.2-0.2-4.7-0.2
	c-0.5,0.1-1,0.2-1.4,0.4c-0.5,0-2.1-0.4-3.3-0.4c-1.6,0-1.8-0.1-3.8-0.2c-1.7,0-4-0.1-6.6-0.3c-0.1,0.4,0.4,0.4,0.5,0.7
	c-1.4-0.1-3.1-0.3-2.9,0.6c-0.6-0.1-0.4-0.4-0.5-0.7c-0.1-0.5,1.7,0,2.4-0.1c-1.4-0.9-4.7-0.8-7.1-0.5c-1.2,0.2-1.5-0.9-1.9-0.3
	c-1,0.4,0.2,0.4,0.9,0.7c0.5,0.2-0.2,0.5,0.9,0.5c0.4,0,0.5-0.2,1-0.2c-0.1-0.3-0.9-0.2-1.4-0.3c1.5-0.5,3.1,0.3,4.8,0
	c0.7,1.3-3.7-0.1-2.9,1.2c-2.6-0.4-3.4-1.5-6.6-1.2c-0.6-1,2.3-0.2,1.9-1c-1.7-0.2-3.5-0.2-5.2,0.2c0.8,0.3,3.5,0.5,1.9,1.2
	c-0.9-0.1-0.3-0.9-1.9-0.8c0.4,1.3-3.2,0.7-3.8,0.1c0.9-0.4,1.9-0.5,2.9-0.3c-0.4-0.9-2.4-0.3-3.8-0.4c1.1,0.9-0.9,0.8-1.9,1.3
	c-0.5-0.9,1.7-0.7,0.5-1.3c-1.3,0.1-1.2,0.9-2.9,0.8c-1.4-0.2,0.8-0.3,1-0.4c-4.6-0.7-11.4-0.9-17.5-1.2c-0.6,0-2.6,0.5-3.3-0.4
	c-3.3,0.2-6.7,0.1-10-0.2c0.7,0.8,3.2,0.5,5.2,0.7c2.5,0,5.1,0.2,7.6,0.5c-0.2,0.8-1.3,0.5-0.5,1.3c-1.7-0.3-2.5,0.3-3.3-0.1
	c0.6-0.1,1-0.2,2.4-0.3c-1-1.2-2.9,0-4.7-0.2c-0.2-0.5,2.2,0.2,1.4-0.6c-10.9-0.4-26.3-0.9-38-1.5c-0.8,0-1.6,0.2-2.4,0.1
	c-1.1-0.1-1.9-0.3-2.8-0.3c-1.6,0-3.6,0.9-4.8,0c-0.2,0.5-1.9,0.2-2.4,0.6c-0.6-0.1-0.5-0.5,0-0.4c-8.3-1.5-17.6-0.4-24.2-1.7
	c-0.7,0.1,0,0.2,0,0.4c-1.9-0.4-3.8-0.6-5.7-0.7c0,0.6,1.8,0.4,1.9,1c-1.5,0-3.6-1-4.7-0.4c0,1,2-0.2,2.4,0.8
	c1.5,0.2,1.7-0.3,3.3-0.1c0.4,0.1,0.5,0.2,0.9,0.3c0.1,0.5-0.1,0.8-1,0.9c0.9,0.1,1.6,0.8,1.8,1.6c-0.8,0.8-2.8-0.1-3.8,0.3
	c-0.3,0.7,1.5,0.3,1.9,0.3c0.5,0.1,0.2,0.4,0.5,0.5c1.4,0.2,3.2,0.2,5.2,0.4c0.3-0.1,0.5-0.4,0.5-0.7c0.1-0.6-0.3-1.1-0.9-1.1
	c0,0-0.1,0-0.1,0c-0.3-0.5,1.8-0.8,1.9-0.4c1.5-0.3-1-0.7-0.9-1.2c1,0,1.5,0.2,1.4,0.7c1.5,0.2,1.1-0.6,2.9-0.3
	c-0.8-0.9-3.1,0.1-3.8-0.8c-1.6-0.1-3.6,0.8-5.2,0c-0.6-1,3.8,0.1,1.9-0.8c1.9,0.6,3.3,0.2,4.7,0.9c0.9-0.1,2,0,1.9-0.6
	c2,0.7,6,0.5,9.5,0.4c1.8,0.6,3.8,0.9,5.7,0.7c1.4,0.4,2.8,0.7,4.2,0.8c0.1-0.4-0.6-0.5-0.4-0.9c1.2,0,1.1,0.6,1.9,0.8
	c1.6,0.1,3.9,0,4.7,0.4c-0.6,0.3-1.3,0.5-1.9,0.4c0.9,0.4,3,0.3,3.8,0.8c2.1,0.1,2.8-0.7,4.8-0.7c0.7,0.1-0.2,0.3,0,0.7
	c2,0.1,2.6-0.5,4.8-0.3c0.5,0.2,0.5,0.5,1.4,0.5c0.2,0.4-0.4,0.4-1,0.4c1.2,0.4,2.6,0.4,3.8-0.1c1.1,0.2-0.6,0.3,0.5,0.7
	c1.6-0.1,0.7-1.4,3.4-1c-0.3,0.2-1.1,0.2-1,0.6c1.6-0.3,1.7,0.6,2.8,0.3c-0.1,0-0.5-0.6,0-0.7c0.4,0,1.3,0.6,0.5,0.5
	c-0.2,0.6,2.6-0.1,2.4,0.5c-0.6,0.6-4.4-0.5-3.8,0.7c-0.6-0.1-0.4-0.6-0.4-0.9C395.9,82.6,395.1,82.6,394.3,82.6z M344.4,81.9
	c0.1-0.7,0.4-1.3,1.9-1.3c0,0.4,0,0.9,0,1.3L344.4,81.9z M343.5,80.3c-0.8-1.1,2.2-0.2,1.5-1.3l1.4,0.1
	C345.9,79.7,345.9,80.6,343.5,80.3L343.5,80.3z M379.2,79.9c-0.3-0.4,2.3-0.3,1.9,0.1c-1.4,0-0.5,1.3-2.9,0.8
	C377.7,80.1,379,80.3,379.2,79.9L379.2,79.9z M125.7,58.5c-0.2,0.2,0.1,0.7-0.1,1c-1.3,0.2-0.6-0.5-0.9-0.7c-0.2-0.2-1.1-0.3-0.9,0
	c-0.1-0.1-0.1-0.2-0.1-0.3L125.7,58.5z M168.4,61.9c0.5-0.8-1-0.8-1.4-1.2c0.4,0,0.9,0,1.3-0.1l0.6,0C169,61.3,170.8,62,168.4,61.9
	L168.4,61.9z M170.2,62.9c-0.1-0.6,0-1.2,1.5-1.1c0.1,0.3,0.7,0.5,0.4,0.9C171.5,62.7,170.8,62.8,170.2,62.9L170.2,62.9z
	 M173.9,60.9c-0.4,0.1-0.8,0.1-1.2,0.1c-0.3,0-0.5-0.1-0.7-0.2L173.9,60.9z M179.7,63.8c-1.7-0.1-4.5-1.3-2.3-1.7
	C178.4,62.8,177.8,63.2,179.7,63.8L179.7,63.8z M180.3,61.5c-0.5,0.1-0.9-0.1-1.3-0.4l1.2,0.1C180.2,61.3,180.3,61.4,180.3,61.5
	L180.3,61.5z M187.3,62.7c0.1,0.6-0.7,0.7-1.9,0.6c-0.1-0.6,0.2-1,1.4-0.8C186.9,62.6,186.9,62.7,187.3,62.7L187.3,62.7z
	 M188.4,61.6L188.4,61.6L188.4,61.6L188.4,61.6z M191.1,62.4c0.5,0.5-0.9,0.4-1,0.9c0,0.1,1.1,0.3,0.9,0.7c-0.1,0.2-0.2,0.5-1.9,0.4
	c0.5-1.2-0.7-0.5-1.4-1C189.1,63.2,188.7,62.1,191.1,62.4L191.1,62.4z M199.7,62.2c-0.3,0.2-0.6,0.3-1,0.3c0.1-0.1,0.1-0.3,0-0.4
	L199.7,62.2z M203.9,64.7c-1.3,0-2.8-0.2-2.9,0.3c1.3,0.1,3.5-0.2,2.8,0.8c-1.6-0.2-3.2-0.6-4.7-1.1c-2.2,0.3-4.4,0.4-6.7,0.2
	c-0.1-0.4,0.1-0.9,0.5-1.1c0.8,0.3,2.8,0.2,3.3,0.6c-1.2,0.3-1.7-0.3-2.4,0.1c1.3,0.4,2.6,0.3,3.8-0.3c-2.5-0.5-0.7-0.9-2.3-1.4
	c-0.9-0.1-1.1,0.2-1.9,0.1c-0.1-0.6,1.3-0.5,1.4-1l0.4,0c0.7,0.5,1.6,0.8,2.5,0.7c-1.3,1,0.7,1.1,1.4,1.2c-0.9,0,0.3,0.9,0.9,0.9
	c-0.1-1.1,3.3-0.4,3.8-1.2C203.9,64,203.9,64.4,203.9,64.7L203.9,64.7z M208.7,63.1c-0.4,0.6,0.7,0.6,0.4,1.1c-2,0-0.6-0.6-1.4-0.7
	c-1.3-0.1-2.8,0-2.8-0.6C206.7,62.9,207.9,63.5,208.7,63.1L208.7,63.1z M209.1,65.4c0.4,0,0.6-0.2,0.5-0.4c1.2,0,2.3,0.1,2.4,0.5
	C211.1,65.4,209.6,66,209.1,65.4L209.1,65.4z M217.8,63.1c-0.5,0.1-1,0.1-1.5,0.1c-0.1-0.1-0.2-0.1-0.3-0.2L217.8,63.1z M217.2,64.8
	c0.7,0.1,0.4,0.7,1.9,0.5c0.6,0.7-1.5,0.1-1,0.9c1.4,0.1,2.4-0.8,2.8,0.1c-1.4-0.1-1.5,0.4-2.9,0.3c-1.7-0.4-2.8-1.2-5.2-1.3
	c-0.1-0.3,0.1-0.6-0.5-0.7c-2.3-0.4,1.3-0.2,1.4,0.3c0.6,0.1,1.5-0.9,1.9-0.1c-0.5,0-1.1,0.3-0.5,0.4
	C216.8,65.5,215.7,64.5,217.2,64.8L217.2,64.8z M221,63.9c-0.9,0.2-1.9,0.2-2.9,0.1c-0.6-0.7,1.5-0.1,1-0.8l0.7,0
	C219.1,63.3,220.9,63.6,221,63.9L221,63.9z M222.9,65.3c0.4-0.5,1-2,2.4-1.3c-0.8,0-1.1,0.3-1,0.9c0.8,0.1,2.4-0.1,1.9,0.5
	c-1.3-0.1-2.5-0.1-3.8,0.1c-0.6,0-3.4-0.1-1.9-0.3L222.9,65.3L222.9,65.3z M229.1,64c0.5,0.7-4.1,0.7-2.9,0.3
	C228.1,64.7,227.2,63.6,229.1,64L229.1,64z M235.2,66c0.2,0.3-0.6,1.1,0.4,1.1c0.7-0.5,1.7-0.5,2.4,0.1c-1.2,0.4-3.8,0-5.7,0
	c-0.4-0.9,2.7,0,2.4-0.8C234.1,66.4,234.2,65.8,235.2,66L235.2,66z M235.2,65.6c0.6-0.3,2.3-1.3,2.9-0.3
	C236.9,65.1,235.8,66.2,235.2,65.6L235.2,65.6z M240.9,66.9c0.1,0.6-0.8,0.7-1.5,0.8c-0.1-0.3-0.7-0.5-0.4-0.9L240.9,66.9z
	 M244.2,65.9c0.9,0,1.1,0.2,1.9,0.3C250.9,66.6,244.2,66.8,244.2,65.9L244.2,65.9z M252.3,66.2c0,0.4,0,0.7,0,1.1
	c0,0.3,3.4,0.3,1.9,0.5c-1.6-0.1-3.2-0.1-4.8,0c-0.7-1.1,2.5-0.2,1.9-1.3c-0.9,0-1-0.3-1.9-0.3c0.2,1.2-4.5,1.8-5.2,0.5
	c1.9,0,3.7,0,4.3,0c0.9-1.1-1.6-0.7-1.4-1.4C249.3,65.5,249.7,66.3,252.3,66.2L252.3,66.2z M255.6,66.2c-1,0.2-1.8-0.8-0.9-0.7
	c0,0.2,0.8,0.3,0.9,0c0-0.1,0-0.3,0-0.4c-0.9-0.2-2.8,0.1-3.2-0.3l4.2,0.2C256.9,65.7,255.4,65.5,255.6,66.2L255.6,66.2z
	 M258.1,65.1c-0.5,0.2-0.4,0.3-1.1-0.1L258.1,65.1z M255.6,67.7c0.9-0.1,1.9-0.2,2.9-0.1C259.1,68.4,255.6,68.1,255.6,67.7
	L255.6,67.7z M265.5,68.4c-2.8,0.2-2.9-0.8-5.2-0.9c-0.3-0.5,0.9-0.4,1-0.6c0,0-0.9-0.3-0.9-0.5c0,0.1,0.9-0.2,1-0.2
	c0.2-0.2-1-0.5,0.5-0.4c-1,1.1,2.1,0.4,2.3,1c-0.8,0-1.6,0.1-2.4,0.3l3.3,0.1C265.5,67.4,265.7,67.9,265.5,68.4L265.5,68.4
	L265.5,68.4L265.5,68.4z M273.2,67.1c0.9-0.2,1.9-0.2,2.8-0.1c-0.3,1-3.8,0.3-5.2,0.7c0,0.2,0.4,0.3,0.5,0.5
	c-0.8,0.1-1.6,0.1-2.4-0.1c-0.7-0.9,2.1,0,1.5-0.8l-2.4-0.1c-0.5-1,2.1,0,2.4-0.6c0.1-0.2-0.1-0.3-0.3-0.3c-0.5,0-0.3,0,0,0
	c0.2,0,0.4,0,0.8-0.1c0.5-0.1,0.4-0.3,1-0.4l1.7,0.1c0.3,0.1,0.6,0.2,0.7,0.4c-0.8,0.1-2.8-0.4-2.9,0.1
	C273.6,66.2,272.6,66.9,273.2,67.1L273.2,67.1z M284.2,66.3c0.1,0.1,0.1,0.2-0.1,0.3c0,0.5-1,0-1-0.4L284.2,66.3L284.2,66.3z
	 M304,69.9c-0.3-0.9,2.3-0.8,1.9,0.1C304.9,70.3,305.3,70,304,69.9L304,69.9z M292.6,67.7c0.6-0.3,2.8-0.3,2.8,0.3
	C294.7,67.8,292.7,68.2,292.6,67.7L292.6,67.7z M301.7,67.8c1.2-0.1,4-0.5,4.7,0C305.3,67.9,302.9,68.5,301.7,67.8L301.7,67.8z
	 M930.2,99c0,0.3,0,0.6,0,0.9l-1.4-0.1C928.6,99.2,928.9,98.8,930.2,99L930.2,99z M891.3,97.4c-1.7-0.5,0.9-0.6,0.5-1.1
	c-0.2,0-0.5,0-0.7-0.1l0.9,0c0.2,0.3,0.5,0.5,0.8,0.5C892.3,97.1,891.8,97.4,891.3,97.4L891.3,97.4z M889.7,96.1
	c-0.6,0.3-1.3,0.3-1.9-0.1L889.7,96.1L889.7,96.1z M883.2,96.2c-0.2,0-0.4-0.2-0.5-0.4l1.4,0.1C883.8,96,883.5,96.1,883.2,96.2
	L883.2,96.2z M879.9,96.3c-0.3-0.2-0.6-0.4-0.8-0.7l1.3,0.1C880.2,95.8,880.1,96.1,879.9,96.3L879.9,96.3z M874.2,96
	c-0.9-0.2-4.7-0.3-3.8-0.6C871.8,95.4,875,95.8,874.2,96L874.2,96z M867.1,96.2c-0.1,0.5-2.1,1.1-2.9,0.5
	C865.4,96.7,865.2,95.9,867.1,96.2L867.1,96.2z M847.1,95.8c-1.3,0-4.7,0.1-4.7-0.9c1.3,0.2,0.9-0.4,1.4-0.6
	c1.4-0.1,2.9,0.1,4.3,0.6c0.1-0.3,1-0.2,1.4-0.4c2.5,0.9,6.3,0.7,9,0.6c-0.5,0.4,2.7,0.2,0.9,0.5c-0.9,0-1-0.3-1.9-0.3
	c-0.2,0.5-1.9,0.7-2.9,0.8c-0.9,0.1-1.2-0.3-2.4-0.3c-1.1,0-2.7,0.3-3.8,0.3C847.9,96.1,847.9,95.8,847.1,95.8L847.1,95.8z
	 M788.8,92.1c-1.4-0.1-3.3,0.6-3.8-0.4c1.1,0,2.2-0.5,3.3-0.5c1.3,0,1.5,0.4,2.4,0.5c0.5,0.1,0.4-0.2,0.5-0.2c0.2,0,0.4,0.1,0.5,0.2
	c2.4,0.2,3.7,0.4,4.2,1.1C794.2,93,791.4,92.3,788.8,92.1L788.8,92.1z M784.1,92.4c-2.1-0.1-2.7-1.2-1.2-1.5l1.2,0.1
	c-0.1,0.5-1.1,0.6-1,1.2C783.5,92.1,784,92.1,784.1,92.4L784.1,92.4z M767,90.3c-2.8,0.1-5.6-0.1-8.3-0.6l22.5,1.1
	c0.1,1.4-3.6,0.2-5.2,0.1c-2.9-0.1-5.6,0.1-8.1,0.1C768,90.6,767.6,90.4,767,90.3L767,90.3z M760.5,100.6c-1.9-0.2-2.9,0.4-3.8-0.4
	C758,100,759.3,100.1,760.5,100.6L760.5,100.6z M756.6,90.1c-0.5-0.3-1-0.5-1.6-0.6l2,0.1C757,90,758.2,90.2,756.6,90.1L756.6,90.1z
	 M747.2,100.1c-0.8-0.4-3.5,0-3.3-0.8c1.8,0.6,1.8-0.2,3.3-0.3C747.3,99.5,748.1,99.7,747.2,100.1L747.2,100.1z M740.5,88.8
	C740.5,88.8,740.5,88.8,740.5,88.8L740.5,88.8z M738.6,88.7c0,0-0.1,0-0.1,0L738.6,88.7C738.5,88.7,738.6,88.7,738.6,88.7
	L738.6,88.7z M734.3,88.5C734.3,88.5,734.3,88.5,734.3,88.5l1.3,0C735.2,88.6,734.7,88.6,734.3,88.5L734.3,88.5z M719.3,97.8
	c-0.6,0.3-2.3,0.3-2.4-0.3C717.5,97.2,719.2,97.2,719.3,97.8L719.3,97.8z M716.7,87.8c-0.1-0.1-0.3-0.1-0.4-0.2l0.8,0
	C717.1,87.7,717,87.8,716.7,87.8L716.7,87.8z M679.9,95.1c-1.7,0-2.8-0.3-3.3-0.8C678,93.7,678.9,94.8,679.9,95.1L679.9,95.1z
	 M673.2,96.2c-0.2-0.7,1-0.7,2.4-0.6C675.8,96.3,674.6,96.2,673.2,96.2L673.2,96.2z M671.4,94.5c-0.7,0.3-2.7,0.2-2.4-0.6
	C670.2,94,671.3,94,671.4,94.5L671.4,94.5z M664.7,94.5c-0.7,0.1-1.4-0.2-1.9-0.8c1.3,0.2,1.2-0.3,2.4-0.1
	C665.3,93.9,665.1,94.3,664.7,94.5L664.7,94.5z M524.2,91.2c-1.6-0.4-3.2,0.6-3.8-0.8c2,0.1,2.6-0.3,3.8,0.4
	C523.7,90.8,523.9,91,524.2,91.2L524.2,91.2z M518.1,90.7c-0.4-0.7,1.2-0.4,1.4-0.8c0-0.2,0.8-0.2,0.9,0
	C519.5,90.1,519.4,90.8,518.1,90.7L518.1,90.7z M515.7,90.6c-1.3-0.4-2.2,0.3-2.8-0.6C513.5,89.8,515.7,90,515.7,90.6L515.7,90.6z
	 M507.4,82.7c-2,0.2-2.4-0.1-3.3-0.8C505.2,81.9,506.3,82.2,507.4,82.7L507.4,82.7z M504.3,89.9c-1,0.4-2.1,0.2-2.8-0.6
	C503.3,89.3,503.6,89.2,504.3,89.9L504.3,89.9z M471.3,82.8c0.7-0.9-1.3-0.8-1.9-1.2c1-0.1,1.9,0.1,2.8,0.3
	C472.2,82.4,471.8,82.7,471.3,82.8L471.3,82.8z M470.3,82.3c-0.2,1.3-3.3,0.1-3.8-0.4c0.3-0.1,1.5-0.9,1.9-0.1
	C467.2,82.7,469.7,81.9,470.3,82.3L470.3,82.3z M449.8,85c-1.2-0.6-2.4,0.2-3.3-0.4C447.2,84.4,449.8,84.4,449.8,85L449.8,85z
	 M424.3,80.2c1.8,0.4,5.2,0.1,5.7,1.1c-0.8,0.3-0.6-0.2-1.4-0.3C427.1,80.8,424.1,81.1,424.3,80.2L424.3,80.2z M427,84.8
	c-0.2-0.7,0.6-0.9,1.4-1.1c0.2,0.3,0.6,0.5,1.4,0.5c0.2,0.7-0.6,0.9-1.5,1.1C428.5,84.9,428,84.7,427,84.8L427,84.8z M425.6,83.4
	c-0.2,0.6,0.6,1.7-1.5,1.3C424.4,84.1,425.1,83.8,425.6,83.4L425.6,83.4z M411.8,83.9c1.1-0.2-0.9-0.9-1.4-1.2
	c0.8-0.1,1.6,0.1,2.4,0.3C413.2,83.6,412.2,84.6,411.8,83.9L411.8,83.9z M405.8,80.3c1.3,0.2,1.2-0.3,2.4-0.1c0,0.4,0,0.7,0,1.1
	C407.2,81,405.9,80.9,405.8,80.3L405.8,80.3z M402.8,82.9c0.2-0.9,4-0.1,5.7-0.2c0,0.4,1.6,0.2,1.4,0.7
	C406.8,83.2,406.1,82.7,402.8,82.9L402.8,82.9z M406.6,83.7c-1.2-0.2-4.1,0.3-3.8-0.6C404,83.4,406.9,82.9,406.6,83.7L406.6,83.7z"
	/>
</svg>
